<?xml version="1.0" standalone="no"?>
<!DOCTYPE svg PUBLIC "-//W3C//DTD SVG 20010904//EN"
 "http://www.w3.org/TR/2001/REC-SVG-20010904/DTD/svg10.dtd">
<svg version="1.0" xmlns="http://www.w3.org/2000/svg"
 width="380.000000pt" height="380.000000pt" viewBox="0 0 380.000000 380.000000"
 preserveAspectRatio="xMidYMid meet">
<metadata>
Created by potrace 1.11, written by Peter Selinger 2001-2013
</metadata>
<g transform="translate(0.000000,380.000000) scale(0.100000,-0.100000)"
fill="#000000" stroke="none">
<path d="M1715 3683 c-349 -29 -679 -154 -948 -360 -154 -118 -332 -317 -435
-485 -123 -201 -209 -443 -243 -683 -16 -116 -16 -374 0 -490 53 -377 231
-738 485 -988 113 -112 205 -168 368 -225 81 -29 92 -36 163 -110 66 -69 85
-83 146 -106 92 -34 242 -71 354 -87 116 -17 386 -17 495 0 386 59 708 216
984 481 385 370 580 882 537 1415 -49 597 -377 1118 -888 1407 -193 109 -290
138 -543 162 -124 11 -155 18 -213 45 -70 32 -119 36 -262 24z"/>
</g>
</svg>
